<svg xmlns="http://www.w3.org/2000/svg" xmlns:xlink="http://www.w3.org/1999/xlink" width="500" zoomAndPan="magnify" viewBox="0 0 375 374.999991" height="500" preserveAspectRatio="xMidYMid meet" version="1.0"><defs><clipPath id="0fcae8feda"><path d="M 101.96875 218.140625 L 116.480469 218.140625 L 116.480469 233.757812 L 101.96875 233.757812 Z M 101.96875 218.140625 " clip-rule="nonzero"/></clipPath><clipPath id="715bf18735"><path d="M 40 30.390625 L 335 30.390625 L 335 344.640625 L 40 344.640625 Z M 40 30.390625 " clip-rule="nonzero"/></clipPath></defs><g clip-path="url(#0fcae8feda)"><path fill="#4befa0" d="M 101.96875 218.140625 L 116.480469 218.140625 L 116.480469 233.785156 L 101.96875 233.785156 Z M 101.96875 218.140625 " fill-opacity="1" fill-rule="nonzero"/></g><g clip-path="url(#715bf18735)"><path fill="#4befa0" d="M 303.691406 187.5 C 303.691406 179.601562 302.921875 171.859375 301.390625 164.421875 L 330.371094 139.273438 C 334.433594 135.746094 335.433594 129.765625 332.75 125.089844 L 314.195312 92.964844 C 311.511719 88.285156 305.835938 86.140625 300.699219 87.902344 L 264.433594 100.402344 C 252.933594 90.203125 239.363281 82.304688 224.410156 77.246094 L 217.128906 39.601562 C 216.132812 34.308594 211.453125 30.398438 206.011719 30.398438 L 168.976562 30.398438 C 163.535156 30.398438 158.933594 34.234375 157.859375 39.601562 L 150.578125 77.246094 C 135.703125 82.230469 122.132812 90.203125 110.554688 100.402344 L 74.289062 87.902344 C 69.152344 86.140625 63.476562 88.210938 60.792969 92.964844 L 42.242188 125.089844 C 39.558594 129.765625 40.554688 135.746094 44.617188 139.273438 L 73.597656 164.421875 C 72.066406 171.859375 71.296875 179.601562 71.296875 187.5 C 71.296875 195.398438 72.066406 203.140625 73.597656 210.578125 L 44.617188 235.726562 C 40.554688 239.253906 39.558594 245.234375 42.242188 249.910156 L 60.792969 282.035156 C 63.476562 286.710938 69.152344 288.859375 74.289062 287.097656 L 110.554688 274.597656 C 122.054688 284.796875 135.625 292.691406 150.578125 297.753906 L 157.859375 335.398438 C 158.859375 340.6875 163.535156 344.597656 168.976562 344.597656 L 206.011719 344.597656 C 211.453125 344.597656 216.054688 340.765625 217.128906 335.398438 L 224.410156 297.753906 C 239.285156 292.769531 252.855469 284.796875 264.433594 274.597656 L 300.699219 287.097656 C 305.835938 288.859375 311.511719 286.789062 314.195312 282.035156 L 332.75 249.910156 C 335.433594 245.234375 334.433594 239.253906 330.371094 235.726562 L 301.390625 210.578125 C 302.921875 203.140625 303.691406 195.398438 303.691406 187.5 Z M 187.53125 248.453125 C 153.875 248.453125 126.578125 221.160156 126.578125 187.5 C 126.578125 153.839844 153.875 126.546875 187.53125 126.546875 C 221.191406 126.546875 248.488281 153.839844 248.488281 187.5 C 248.488281 221.160156 221.191406 248.453125 187.53125 248.453125 Z M 187.53125 248.453125 " fill-opacity="1" fill-rule="nonzero"/></g></svg>